<svg width="32" height="32" viewBox="0 0 32 32" fill="none" xmlns="http://www.w3.org/2000/svg">
<path d="M17.9062 13.1562C17.1844 13.1562 16.625 13.7156 16.625 14.4062C16.625 15.0969 17.1844 15.6562 17.9062 15.6562C18.5656 15.6562 19.125 15.0969 19.125 14.4062C19.125 13.7156 18.5656 13.1562 17.9062 13.1562ZM9.15625 13.1562C8.43437 13.1562 7.875 13.7156 7.875 14.4062C7.875 15.0969 8.43437 15.6562 9.15625 15.6562C9.81562 15.6562 10.375 15.0969 10.375 14.4062C10.375 13.7156 9.81562 13.1562 9.15625 13.1562Z" fill="#6856F8"/>
<path d="M27.9375 10.7813C26.4344 8.71881 24.3344 7.34068 22.0312 6.71881V6.72193C21.4969 6.12818 20.8937 5.58131 20.2187 5.09381C15.1031 1.37506 7.92187 2.50943 4.18749 7.62506C1.17812 11.7813 1.30625 17.3719 4.37499 21.3438L4.4 25.4876C4.4 25.5876 4.41562 25.6876 4.44687 25.7813C4.6125 26.3094 5.17499 26.6001 5.69999 26.4344L9.65624 25.1876C10.7031 25.5594 11.7844 25.7719 12.8594 25.8313L12.8437 25.8438C15.6281 27.8719 19.2781 28.4813 22.625 27.3751L26.5969 28.6688C26.6969 28.7001 26.8 28.7188 26.9062 28.7188C27.4594 28.7188 27.9062 28.2719 27.9062 27.7188V23.5313C30.6594 19.7938 30.7312 14.6282 27.9375 10.7813ZM10.0937 22.9688L9.71874 22.8126L6.62499 23.7813L6.59374 20.5313L6.34374 20.2501C3.69999 17.0251 3.525 12.3782 5.99999 8.96881C9.0125 4.83756 14.7875 3.92506 18.9062 6.90631C23.0375 9.90943 23.9531 15.6751 20.9687 19.7813C18.4656 23.2157 13.9844 24.4844 10.0937 22.9688ZM25.875 22.4376L25.625 22.7501L25.6562 26.0001L22.5937 24.9688L22.2187 25.1251C20.4687 25.7751 18.6031 25.8282 16.875 25.3438L16.8687 25.3407C19.1781 24.6313 21.2719 23.1938 22.7812 21.1251C25.1687 17.8344 25.5562 13.7001 24.1687 10.1751L24.1875 10.1876C24.9062 10.7032 25.5656 11.3469 26.125 12.1251C28.3937 15.2376 28.2656 19.4751 25.875 22.4376Z" fill="#6856F8"/>
<path d="M13.5312 13.1562C12.8094 13.1562 12.25 13.7156 12.25 14.4062C12.25 15.0969 12.8094 15.6562 13.5312 15.6562C14.1906 15.6562 14.75 15.0969 14.75 14.4062C14.75 13.7156 14.1906 13.1562 13.5312 13.1562Z" fill="#6856F8"/>
</svg>
