<svg width="32" height="32" viewBox="0 0 32 32" fill="none" xmlns="http://www.w3.org/2000/svg">
<path d="M25.3334 5.33329H22.6667V3.99996C22.6667 3.64634 22.5262 3.3072 22.2762 3.05715C22.0261 2.8071 21.687 2.66663 21.3334 2.66663C20.9797 2.66663 20.6406 2.8071 20.3905 3.05715C20.1405 3.3072 20 3.64634 20 3.99996V5.33329H12V3.99996C12 3.64634 11.8595 3.3072 11.6095 3.05715C11.3594 2.8071 11.0203 2.66663 10.6667 2.66663C10.3131 2.66663 9.97393 2.8071 9.72388 3.05715C9.47383 3.3072 9.33335 3.64634 9.33335 3.99996V5.33329H6.66669C5.60582 5.33329 4.58841 5.75472 3.83826 6.50487C3.08811 7.25501 2.66669 8.27243 2.66669 9.33329V25.3333C2.66669 26.3942 3.08811 27.4116 3.83826 28.1617C4.58841 28.9119 5.60582 29.3333 6.66669 29.3333H25.3334C26.3942 29.3333 27.4116 28.9119 28.1618 28.1617C28.9119 27.4116 29.3334 26.3942 29.3334 25.3333V9.33329C29.3334 8.27243 28.9119 7.25501 28.1618 6.50487C27.4116 5.75472 26.3942 5.33329 25.3334 5.33329ZM26.6667 25.3333C26.6667 25.6869 26.5262 26.0261 26.2762 26.2761C26.0261 26.5261 25.687 26.6666 25.3334 26.6666H6.66669C6.31306 26.6666 5.97393 26.5261 5.72388 26.2761C5.47383 26.0261 5.33335 25.6869 5.33335 25.3333V16H26.6667V25.3333ZM26.6667 13.3333H5.33335V9.33329C5.33335 8.97967 5.47383 8.64053 5.72388 8.39048C5.97393 8.14044 6.31306 7.99996 6.66669 7.99996H9.33335V9.33329C9.33335 9.68691 9.47383 10.0261 9.72388 10.2761C9.97393 10.5261 10.3131 10.6666 10.6667 10.6666C11.0203 10.6666 11.3594 10.5261 11.6095 10.2761C11.8595 10.0261 12 9.68691 12 9.33329V7.99996H20V9.33329C20 9.68691 20.1405 10.0261 20.3905 10.2761C20.6406 10.5261 20.9797 10.6666 21.3334 10.6666C21.687 10.6666 22.0261 10.5261 22.2762 10.2761C22.5262 10.0261 22.6667 9.68691 22.6667 9.33329V7.99996H25.3334C25.687 7.99996 26.0261 8.14044 26.2762 8.39048C26.5262 8.64053 26.6667 8.97967 26.6667 9.33329V13.3333Z" fill="#6856F8"/>
</svg>
