<svg width="90" height="90" viewBox="0 0 90 90" fill="none" xmlns="http://www.w3.org/2000/svg">
<rect width="90" height="90" rx="20" fill="#E0DEF4"/>
<path d="M45 17C29.5375 17 17 29.5375 17 45C17 60.4625 29.5375 73 45 73C60.4625 73 73 60.4625 73 45C73 29.5375 60.4625 17 45 17ZM45 68.25C32.1625 68.25 21.75 57.8375 21.75 45C21.75 32.1625 32.1625 21.75 45 21.75C57.8375 21.75 68.25 32.1625 68.25 45C68.25 57.8375 57.8375 68.25 45 68.25Z" fill="#6856F8"/>
<path d="M57.9625 44.1937L39.4563 30.7562C39.3078 30.6474 39.1321 30.582 38.9487 30.5672C38.7652 30.5524 38.5813 30.5888 38.4173 30.6724C38.2534 30.756 38.1159 30.8835 38.0201 31.0406C37.9244 31.1978 37.8741 31.3785 37.875 31.5625V58.4375C37.875 59.2562 38.8 59.7187 39.4563 59.2437L57.9625 45.8062C58.0903 45.7142 58.1943 45.5931 58.2661 45.4529C58.3379 45.3127 58.3753 45.1575 58.3753 45C58.3753 44.8425 58.3379 44.6873 58.2661 44.5471C58.1943 44.4069 58.0903 44.2858 57.9625 44.1937ZM41.8625 52.5687V37.4312L52.2813 45L41.8625 52.5687Z" fill="#6856F8"/>
</svg>
